<svg width="18" height="18" viewBox="0 0 18 18" fill="none" xmlns="http://www.w3.org/2000/svg">
<path d="M12.2771 4.24381L10.7004 2.12881C10.5235 1.89318 10.2969 1.70249 10.0381 1.57135C9.77937 1.44021 9.49516 1.37207 9.20712 1.37207C8.91909 1.37207 8.63487 1.44021 8.37611 1.57135C8.11735 1.70249 7.89091 1.89318 7.71401 2.12881L6.13729 4.24381C5.91579 4.54181 5.61727 4.76852 5.2764 4.8976L2.85142 5.80311C2.57456 5.90095 2.32338 6.06403 2.11756 6.27948C1.91174 6.49494 1.75685 6.7569 1.66518 7.04484C1.57351 7.33279 1.54744 7.63881 1.58911 7.93893C1.63079 8.23906 1.73909 8.52507 1.90538 8.77453L3.356 10.9876C3.55544 11.2991 3.66485 11.6632 3.67134 12.037L3.75326 14.7077C3.75933 15.0102 3.83291 15.3071 3.96806 15.5752C4.1032 15.8434 4.29634 16.0754 4.53238 16.2533C4.76843 16.4312 5.04087 16.5501 5.3286 16.6007C5.61633 16.6513 5.91145 16.6321 6.19087 16.5448L8.66959 15.7996C9.01655 15.6943 9.38522 15.6943 9.73218 15.7996L12.2109 16.5448C12.4903 16.6321 12.7854 16.6513 13.0732 16.6007C13.3609 16.5501 13.6333 16.4312 13.8694 16.2533C14.1054 16.0754 14.2986 15.8434 14.4337 15.5752C14.5689 15.3071 14.6424 15.0102 14.6485 14.7077L14.7304 12.037C14.739 11.6636 14.8482 11.3 15.0458 10.9876L16.4964 8.77453C16.6598 8.52519 16.766 8.24046 16.807 7.94205C16.848 7.64364 16.8227 7.33952 16.7329 7.05282C16.6431 6.76612 16.4914 6.50445 16.2891 6.28786C16.0869 6.07127 15.8396 5.90547 15.5661 5.80311L13.138 4.8976C12.7971 4.76852 12.4986 4.54181 12.2771 4.24381Z" stroke="#FD5D69" stroke-width="1.17355" stroke-linecap="round" stroke-linejoin="round"/>
</svg>
